<svg width="10" height="10" viewBox="0 0 10 10" fill="none" xmlns="http://www.w3.org/2000/svg">
    <rect width="10" height="10" fill="#D9D9D9"/>
    <rect x="9" y="9" width="1" height="1" fill="#404040"/>
    <rect y="9" width="1" height="1" fill="#404040"/>
    <rect width="1" height="1" fill="#404040"/>
    <rect x="9" width="1" height="1" fill="#404040"/>
    <rect x="1" width="8" height="10" fill="black"/>
    <rect y="1" width="10" height="8" fill="black"/>
    <rect x="7" y="7" width="2" height="2" fill="white"/>
    <rect x="7" y="4" width="2" height="2" fill="white"/>
    <rect x="7" y="1" width="2" height="2" fill="white"/>
    <rect x="7" y="7" width="2" height="2" fill="white"/>
    <rect x="7" y="4" width="2" height="2" fill="white"/>
    <rect x="7" y="1" width="2" height="2" fill="white"/>
    <rect x="4" y="7" width="2" height="2" fill="white"/>
    <rect x="4" y="4" width="2" height="2" fill="white"/>
    <rect x="4" y="1" width="2" height="2" fill="white"/>
    <rect x="7" y="7" width="2" height="2" fill="white"/>
    <rect x="7" y="4" width="2" height="2" fill="white"/>
    <rect x="7" y="1" width="2" height="2" fill="white"/>
    <rect x="1" y="7" width="2" height="2" fill="white"/>
    <rect x="1" y="4" width="2" height="2" fill="white"/>
    <rect x="1" y="1" width="2" height="2" fill="white"/>
</svg>
